<svg xmlns="http://www.w3.org/2000/svg" width="24" height="18" viewBox="0 0 24 18">
    <path fill="#FFF" fill-rule="nonzero" d="M7.515 17.937c9.023 0 13.957-6.902 13.957-12.884 0-.193 0-.387-.015-.588a9.587 9.587 0 0 0 2.445-2.347c-.892.367-1.845.61-2.82.713 1.028-.568 1.793-1.454 2.16-2.506-.96.526-2.017.9-3.112 1.1-1.86-1.82-4.965-1.91-6.937-.193-1.275 1.108-1.816 2.755-1.418 4.327C7.83 5.379 4.155 3.655 1.665.83.36 2.9 1.028 5.545 3.18 6.874a5.154 5.154 0 0 1-2.228-.568v.056c0 2.153 1.65 4.008 3.938 4.438-.72.18-1.477.207-2.212.076.644 1.841 2.482 3.108 4.582 3.143-1.74 1.26-3.885 1.945-6.09 1.945-.39 0-.78-.02-1.17-.062 2.235 1.33 4.845 2.035 7.515 2.035"/>
</svg>
