<svg width="392" height="112" xmlns="http://www.w3.org/2000/svg"><defs><linearGradient x1="0%" y1="0%" y2="100%" id="a"><stop stop-color="#00CC81" offset="0%"/><stop stop-color="#D5E969" offset="100%"/></linearGradient></defs><g fill="none" fill-rule="evenodd"><g><rect fill="url(#a)" width="112" height="112" rx="16"/><path d="M36.052 70.148L25.066 80.582A3 3 0 0 1 20 78.407V44.876a3 3 0 0 1 .969-2.208L36.087 28.76a3 3 0 0 1 4.062 0l13.82 12.713a3 3 0 0 0 4.062 0l13.82-12.713a3 3 0 0 1 4.062 0l15.118 13.907A3 3 0 0 1 92 44.876v33.531a3 3 0 0 1-5.066 2.175L75.948 70.148a3 3 0 0 0-4.132 0l-13.75 13.06a3 3 0 0 1-4.132 0l-13.75-13.06a3 3 0 0 0-4.132 0z" fill="#FFF" fill-rule="nonzero" opacity=".926"/></g><path d="M192.714 27v57.956h-11.343V47.367l-16.31 26.909h-1.325l-16.31-26.826v37.506H136V27h11.757l16.641 27.405L180.958 27h11.756zm29.972 59.115c-12.171 0-21.858-9.521-21.858-21.858 0-12.336 9.687-21.857 21.858-21.857 12.17 0 21.94 9.521 21.94 21.857 0 12.337-9.77 21.858-21.94 21.858zm0-10.432c6.375 0 11.26-4.72 11.26-11.426s-4.885-11.425-11.26-11.425c-6.293 0-11.178 4.72-11.178 11.425 0 6.707 4.885 11.426 11.178 11.426zM275.177 42.4c8.776 0 15.648 6.127 15.648 17.138v25.418h-10.68V60.863c0-5.63-3.395-8.528-8.197-8.528-5.216 0-9.107 3.063-9.107 10.267v22.354h-10.68V43.559h10.68v4.636c2.484-3.725 6.789-5.795 12.336-5.795zm52.078 1.159h10.68v41.397h-10.68V80.32c-2.484 3.725-6.79 5.795-12.337 5.795-8.776 0-15.648-6.127-15.648-17.138V43.559h10.68v24.093c0 5.63 3.395 8.528 8.197 8.528 5.217 0 9.108-3.064 9.108-10.267V43.56zm44.543-1.16C382.893 42.4 392 51.922 392 64.258c0 12.337-9.107 21.858-20.202 21.858-6.044 0-10.432-2.235-13.412-6.044v21.444h-10.681V43.559h10.68v4.885c2.981-3.809 7.37-6.044 13.413-6.044zm-1.987 33.532c6.624 0 11.509-4.719 11.509-11.674 0-6.954-4.885-11.674-11.509-11.674-6.54 0-11.425 4.72-11.425 11.674 0 6.955 4.884 11.674 11.425 11.674z" fill="#FFF"/></g></svg>