<?xml version="1.0" encoding="UTF-8"?>
<svg width="404px" height="136px" viewBox="0 0 404 136" version="1.1" xmlns="http://www.w3.org/2000/svg" xmlns:xlink="http://www.w3.org/1999/xlink">
    <!-- Generator: Sketch 49.3 (51167) - http://www.bohemiancoding.com/sketch -->
    <title>Logo v1</title>
    <desc>Created with Sketch.</desc>
    <defs>
        <linearGradient x1="0%" y1="0%" x2="100%" y2="100%" id="linearGradient-1">
            <stop stop-color="#00CC81" offset="0%"></stop>
            <stop stop-color="#D5E969" offset="100%"></stop>
        </linearGradient>
        <rect id="path-2" x="0" y="0" width="112" height="112" rx="16"></rect>
        <filter x="-17.0%" y="-15.2%" width="133.9%" height="133.9%" filterUnits="objectBoundingBox" id="filter-3">
            <feOffset dx="0" dy="2" in="SourceAlpha" result="shadowOffsetOuter1"></feOffset>
            <feGaussianBlur stdDeviation="6" in="shadowOffsetOuter1" result="shadowBlurOuter1"></feGaussianBlur>
            <feColorMatrix values="0 0 0 0 0   0 0 0 0 0   0 0 0 0 0  0 0 0 0.115913723 0" type="matrix" in="shadowBlurOuter1"></feColorMatrix>
        </filter>
    </defs>
    <g id="Logo" stroke="none" stroke-width="1" fill="none" fill-rule="evenodd">
        <g id="Artboard" transform="translate(-486.000000, -687.000000)">
            <g id="Logo-v1" transform="translate(498.000000, 697.000000)">
                <g id="Rectangle">
                    <use fill="black" fill-opacity="1" filter="url(#filter-3)" xlink:href="#path-2"></use>
                    <use fill="url(#linearGradient-1)" fill-rule="evenodd" xlink:href="#path-2"></use>
                </g>
                <g id="Combined-Shape" transform="translate(20.000000, 29.000000)" fill="#FFFFFF" fill-rule="nonzero" opacity="0.925611413">
                    <path d="M15.9016183,43.3264623 L5.09838171,53.8997694 C3.91427572,55.0586736 2.01489065,55.0382436 0.855986432,53.8541376 C0.307277717,53.2934965 -2.15885006e-15,52.54023 -3.99680289e-15,51.7557559 L3.99680289e-15,17.3519594 C3.89595448e-15,16.5284697 0.338507112,15.741186 0.936165474,15.1746705 L15.9361655,0.956292037 C17.0934157,-0.140656073 18.9065843,-0.140656066 20.0638345,0.956292052 L33.7016788,13.8834943 C34.8589291,14.9804425 36.6720977,14.9804425 37.8293479,13.8834943 L51.4671922,0.956292052 C52.6244424,-0.140656066 54.4376111,-0.140656073 55.5948613,0.956292037 L70.5948613,15.1746705 C71.1925196,15.741186 71.5310268,16.5284697 71.5310268,17.3519594 L71.5310268,51.7557559 C71.5310268,53.4126101 70.187881,54.7557559 68.5310268,54.7557559 C67.7465526,54.7557559 66.9932861,54.4484781 66.432645,53.8997694 L55.6294085,43.3264623 C54.463274,42.185147 52.5987796,42.185147 51.432645,43.3264623 L37.8638951,56.6064236 C36.6977606,57.7477388 34.8332662,57.7477388 33.6671316,56.6064236 L20.0983817,43.3264623 C18.9322472,42.185147 17.0677528,42.185147 15.9016183,43.3264623 Z"></path>
                </g>
                <path d="M192.714101,23 L192.714101,80.9560155 L181.371281,80.9560155 L181.371281,43.3673997 L165.060802,70.2755498 L163.736093,70.2755498 L147.425614,43.450194 L147.425614,80.9560155 L136,80.9560155 L136,23 L147.756792,23 L164.398448,50.4049159 L180.957309,23 L192.714101,23 Z M222.68564,82.1151358 C210.514877,82.1151358 200.827943,72.5937904 200.827943,60.2574386 C200.827943,47.9210867 210.514877,38.3997413 222.68564,38.3997413 C234.856404,38.3997413 244.626132,47.9210867 244.626132,60.2574386 C244.626132,72.5937904 234.856404,82.1151358 222.68564,82.1151358 Z M222.68564,71.683053 C229.060802,71.683053 233.945666,66.9637775 233.945666,60.2574386 C233.945666,53.5510996 229.060802,48.8318241 222.68564,48.8318241 C216.393273,48.8318241 211.508409,53.5510996 211.508409,60.2574386 C211.508409,66.9637775 216.393273,71.683053 222.68564,71.683053 Z M275.177232,38.3997413 C283.953428,38.3997413 290.825356,44.5265201 290.825356,55.538163 L290.825356,80.9560155 L280.14489,80.9560155 L280.14489,56.8628719 C280.14489,51.232859 276.750323,48.3350582 271.948254,48.3350582 C266.732212,48.3350582 262.84088,51.3984476 262.84088,58.6015524 L262.84088,80.9560155 L252.160414,80.9560155 L252.160414,39.5588616 L262.84088,39.5588616 L262.84088,44.1953428 C265.324709,40.469599 269.630013,38.3997413 275.177232,38.3997413 Z M327.254851,39.5588616 L337.935317,39.5588616 L337.935317,80.9560155 L327.254851,80.9560155 L327.254851,76.3195343 C324.771022,80.0452781 320.465718,82.1151358 314.918499,82.1151358 C306.142303,82.1151358 299.270375,75.9883571 299.270375,64.9767141 L299.270375,39.5588616 L309.950841,39.5588616 L309.950841,63.6520052 C309.950841,69.2820181 313.345408,72.1798189 318.147477,72.1798189 C323.363519,72.1798189 327.254851,69.1164295 327.254851,61.9133247 L327.254851,39.5588616 Z M371.798189,38.3997413 C382.892626,38.3997413 392,47.9210867 392,60.2574386 C392,72.5937904 382.892626,82.1151358 371.798189,82.1151358 C365.754204,82.1151358 361.366106,79.8796895 358.385511,76.0711514 L358.385511,97.5148771 L347.705045,97.5148771 L347.705045,39.5588616 L358.385511,39.5588616 L358.385511,44.4437257 C361.366106,40.6351876 365.754204,38.3997413 371.798189,38.3997413 Z M369.811125,71.931436 C376.43467,71.931436 381.319534,67.2121604 381.319534,60.2574386 C381.319534,53.3027167 376.43467,48.5834411 369.811125,48.5834411 C363.270375,48.5834411 358.385511,53.3027167 358.385511,60.2574386 C358.385511,67.2121604 363.270375,71.931436 369.811125,71.931436 Z" id="Monup" fill="#FFFFFF"></path>
            </g>
        </g>
    </g>
</svg>