<svg xmlns="http://www.w3.org/2000/svg" width="121" height="32" viewBox="0 0 121 32">
    <defs>
        <linearGradient id="a" x1="0%" y1="0%" y2="100%">
            <stop offset="0%" stop-color="#00CC81"/>
            <stop offset="100%" stop-color="#D5E969"/>
        </linearGradient>
    </defs>
    <g fill="none" fill-rule="evenodd">
        <rect width="32" height="32" fill="#000" fill-rule="nonzero" rx="4.571"/>
        <rect width="32" height="32" fill="url(#a)" rx="4.571"/>
        <path fill="#FFF" fill-rule="nonzero" d="M10.258 20.665l-3.087 3.02a.857.857 0 0 1-1.457-.612v-9.83c0-.235.097-.46.268-.622l4.285-4.062a.857.857 0 0 1 1.18 0l3.896 3.693a.857.857 0 0 0 1.18 0l3.896-3.693a.857.857 0 0 1 1.18 0l4.285 4.062c.171.162.268.387.268.622v9.83a.857.857 0 0 1-1.457.613l-3.087-3.021a.857.857 0 0 0-1.199 0l-3.876 3.794a.857.857 0 0 1-1.2 0l-3.876-3.794a.857.857 0 0 0-1.2 0z" opacity=".926"/>
        <g fill="#FFF" font-family="Gilroy-Bold, Gilroy" font-size="26.286" font-weight="bold">
            <text transform="translate(37.143 .286)">
                <tspan x="0" y="25">Monup</tspan>
            </text>
        </g>
    </g>
</svg>
